<svg height="480.58" viewBox="0 0 1573.6 480.58" width="1573.6" xmlns="http://www.w3.org/2000/svg"><g fill="none" stroke="#fff" stroke-linecap="round" transform="translate(758.3 204.04)"><path d="m-693.41 36.25c0 26.6-18.5 48.78-43.08 53.89v-107.78c24.58 5.11 43.08 27.3 43.08 53.89z" stroke-linejoin="round"/><path d="m-736.49-142.99v-40.67h41.41a93.712 93.712 0 0 0 -41.41 40.67z" stroke-linejoin="round"/><path d="m-695.06 256.17h-41.43v-40.68a93.728 93.728 0 0 0 41.43 40.68z" stroke-linejoin="round"/><path d="m793.49-183.66v40.67a93.712 93.712 0 0 0 -41.41-40.67z" stroke-linejoin="round"/><path d="m793.49-17.64v107.78c-24.58-5.11-43.08-27.29-43.08-53.89s18.5-48.78 43.08-53.89z" stroke-linejoin="round"/><path d="m793.49 215.49v40.68h-41.43a93.728 93.728 0 0 0 41.43-40.68z" stroke-linejoin="round"/><path d="m243.2-203.54h571.6v479.58h-1572.6v-479.58h572"/><path d="m-205.8-183.66h-489.28a93.712 93.712 0 0 0 -41.41 40.67v125.35c24.58 5.11 43.08 27.3 43.08 53.89s-18.5 48.78-43.08 53.89v125.35a93.728 93.728 0 0 0 41.43 40.68h1447.12a93.728 93.728 0 0 0 41.43-40.68v-125.35c-24.58-5.11-43.08-27.29-43.08-53.89s18.5-48.78 43.08-53.89v-125.35a93.712 93.712 0 0 0 -41.41-40.67h-488.88"/><g stroke-linejoin="round"><path d="m-747.31-98.65a95.452 95.452 0 0 1 10.82-44.34v125.35a52.883 52.883 0 0 0 -10.82-1.11z"/><path d="m-747.31 91.25a52.883 52.883 0 0 0 10.82-1.11v125.35a95.483 95.483 0 0 1 -10.82-44.34z"/><path d="m-185.8-183.66h-509.28a90.584 90.584 0 0 1 40.28-9.4h475"/><path d="m-695.06 256.17h1447.12a90.524 90.524 0 0 1 -40.26 9.39h-1366.6a90.524 90.524 0 0 1 -40.26-9.39z"/><path d="m237.2-193.06h474.6a90.584 90.584 0 0 1 40.28 9.4h-508.88"/><path d="m804.31-98.65v79.9a52.883 52.883 0 0 0 -10.82 1.11v-125.35a95.452 95.452 0 0 1 10.82 44.34z"/><path d="m793.49 90.14a52.883 52.883 0 0 0 10.82 1.11v79.9a95.483 95.483 0 0 1 -10.82 44.34z"/></g></g></svg>