<svg class="svg-icon" style="width: 1em;height: 1em;vertical-align: middle;fill: currentColor;overflow: hidden;" viewBox="0 0 1024 1024" version="1.1" xmlns="http://www.w3.org/2000/svg"><path d="M832.969707 681.490133V20.911016h-87.824136v123.95189h-2.729842a234.510492 234.510492 0 0 0-35.914485-55.748493A275.330161 275.330161 0 0 0 653.951785 42.451176a247.136011 247.136011 0 0 0-64.791094-31.393183A256.477189 256.477189 0 0 0 513.620844 0.010663c-51.611076 0-98.103698 9.597101-138.454176 28.578034A292.732904 292.732904 0 0 0 273.437399 106.645118a347.073821 347.073821 0 0 0-62.701059 115.634402 451.063741 451.063741 0 0 0-21.582813 140.032365c0 51.141884 6.014183 99.212696 18.127857 144.25509 12.198982 45.085047 31.435837 84.283873 58.350373 117.809745a273.06951 273.06951 0 0 0 101.302732 78.184381c40.990284 18.597049 90.383363 28.19415 148.051276 28.19415 53.23192 0 99.383311-13.435941 139.136636-40.350477s69.866894-62.82902 90.383363-107.700799h2.601881v97.421237c0 87.18433-17.957242 153.85219-53.91438 200.686043-35.829177 46.108738-94.86201 69.866894-176.842579 69.866894a327.666351 327.666351 0 0 1-71.189162-7.720334 228.496308 228.496308 0 0 1-63.426173-24.312656 167.586708 167.586708 0 0 1-48.753273-44.274625c-13.478595-18.554395-22.435889-40.990284-26.95719-67.947474H216.15337c2.857803 37.833904 13.435941 70.549355 31.435837 98.103698a234.681107 234.681107 0 0 0 68.331359 67.947474 308.088265 308.088265 0 0 0 92.644013 38.473711c34.592217 8.274834 69.909548 12.796135 106.378532 12.796134 58.99018 0 108.383259-8.317487 148.691083-23.672849 40.393131-16.037822 73.108582-38.473711 98.146351-68.58728 25.634923-30.198877 43.549511-66.070708 55.15134-109.023066 11.516521-42.952358 17.914588-91.02317 17.914588-143.615283l-1.876766 2.644534z m-319.220902-23.758156c-40.734361 0-76.094346-8.061565-105.738725-24.35531a222.226203 222.226203 0 0 1-73.87635-64.108633c-19.919316-26.487998-33.995064-56.814837-43.592164-91.236439s-14.161056-69.653625-14.161056-105.951994c0-37.151444 4.478647-73.577773 12.838788-109.321642 8.957294-35.829177 23.033042-67.691552 42.312552-95.544471 19.236856-27.810266 44.231972-50.41677 73.705734-67.563591s65.388247-25.805538 107.060992-25.805537 76.904768 8.91464 106.421186 26.487998a224.017661 224.017661 0 0 1 71.786314 69.696279c18.597049 28.87661 32.03299 60.952254 40.393132 96.184278 8.317487 35.232024 12.156328 70.634662 12.156327 105.866686a391.988254 391.988254 0 0 1-14.715554 105.951994 272.770934 272.770934 0 0 1-44.274626 91.236439 230.330421 230.330421 0 0 1-72.426121 64.108633c-28.833956 16.293745-62.189214 24.355309-100.620271 24.35531h2.729842z"  /></svg>